HIERARCHY
ROOT Root
{
  OFFSET 0.0 0.0 0.0
  CHANNELS 6 Xposition Yposition Zposition Zrotation Yrotation Xrotation
  JOINT Hips
  {
    OFFSET 0.0 100.0 0.0
    CHANNELS 6 Xposition Yposition Zposition Zrotation Yrotation Xrotation
    JOINT Spine1
    {
      OFFSET -0.013727 5.003763 -0.053727
      CHANNELS 3 Zrotation Yrotation Xrotation
      JOINT Spine2
      {
        OFFSET -0.0 7.125301 -0.029825
        CHANNELS 3 Zrotation Yrotation Xrotation
        JOINT Chest
        {
          OFFSET -1e-06 7.550063 -0.815971
          CHANNELS 3 Zrotation Yrotation Xrotation
          JOINT Neck1
          {
            OFFSET -0.181677 26.311295 -0.553348
            CHANNELS 3 Zrotation Yrotation Xrotation
            JOINT Neck2
            {
              OFFSET -3e-06 7.709397 2.302585
              CHANNELS 3 Zrotation Yrotation Xrotation
              JOINT Head
              {
                OFFSET -5e-06 6.128916 1.953709
                CHANNELS 3 Zrotation Yrotation Xrotation
                JOINT HeadEnd
                {
                  OFFSET 0.003598 16.065403 -1.835379
                  CHANNELS 3 Zrotation Yrotation Xrotation
                }
                JOINT Jaw
                {
                  OFFSET 0.002637 0.475592 3.094941
                  CHANNELS 3 Zrotation Yrotation Xrotation
                }
                JOINT LeftEye
                {
                  OFFSET 3.206381 5.380205 7.586883
                  CHANNELS 3 Zrotation Yrotation Xrotation
                }
                JOINT RightEye
                {
                  OFFSET -3.22244 5.361869 7.558234
                  CHANNELS 3 Zrotation Yrotation Xrotation
                }
              }
            }
          }
          JOINT LeftShoulder
          {
            OFFSET 1.621652 23.237164 5.113413
            CHANNELS 3 Zrotation Yrotation Xrotation
            JOINT LeftArm
            {
              OFFSET 14.919846 2e-06 -5.502326
              CHANNELS 3 Zrotation Yrotation Xrotation
              JOINT LeftForeArm
              {
                OFFSET 28.739307 0.0 -0.002588
                CHANNELS 3 Zrotation Yrotation Xrotation
                JOINT LeftHand
                {
                  OFFSET 27.093981 -1e-06 0.002609
                  CHANNELS 3 Zrotation Yrotation Xrotation
                  JOINT LeftHandThumb1
                  {
                    OFFSET 2.276482 -1.392045 3.191413
                    CHANNELS 3 Zrotation Yrotation Xrotation
                    JOINT LeftHandThumb2
                    {
                      OFFSET 4.012836 -1.828127 1.641654
                      CHANNELS 3 Zrotation Yrotation Xrotation
                      JOINT LeftHandThumb3
                      {
                        OFFSET 2.798515 0.0 -3e-06
                        CHANNELS 3 Zrotation Yrotation Xrotation
                        JOINT LeftHandThumbEnd
                        {
                          OFFSET 3.180793 -4e-06 4e-06
                          CHANNELS 3 Zrotation Yrotation Xrotation
                        }
                      }
                    }
                  }
                  JOINT LeftHandIndex1
                  {
                    OFFSET 3.247555 -0.531998 2.296169
                    CHANNELS 3 Zrotation Yrotation Xrotation
                    JOINT LeftHandIndex2
                    {
                      OFFSET 6.364578 0.01206 0.1786
                      CHANNELS 3 Zrotation Yrotation Xrotation
                      JOINT LeftHandIndex3
                      {
                        OFFSET 3.662364 0.0 0.0
                        CHANNELS 3 Zrotation Yrotation Xrotation
                        JOINT LeftHandIndex4
                        {
                          OFFSET 2.329242 4e-06 4e-06
                          CHANNELS 3 Zrotation Yrotation Xrotation
                          JOINT LeftHandIndexEnd
                          {
                            OFFSET 2.759615 -0.180537 -0.113024
                            CHANNELS 3 Zrotation Yrotation Xrotation
                          }
                        }
                      }
                    }
                  }
                  JOINT LeftHandMiddle1
                  {
                    OFFSET 3.163495 0.240981 1.000332
                    CHANNELS 3 Zrotation Yrotation Xrotation
                    JOINT LeftHandMiddle2
                    {
                      OFFSET 6.19078 -0.259278 -1.002548
                      CHANNELS 3 Zrotation Yrotation Xrotation
                      JOINT LeftHandMiddle3
                      {
                        OFFSET 4.35652 -4e-06 -1e-06
                        CHANNELS 3 Zrotation Yrotation Xrotation
                        JOINT LeftHandMiddle4
                        {
                          OFFSET 2.996877 -8e-06 0.0
                          CHANNELS 3 Zrotation Yrotation Xrotation
                          JOINT LeftHandMiddleEnd
                          {
                            OFFSET 2.304287 -0.294569 -0.031741
                            CHANNELS 3 Zrotation Yrotation Xrotation
                          }
                        }
                      }
                    }
                  }
                  JOINT LeftHandRing1
                  {
                    OFFSET 2.882643 -0.053652 -0.322543
                    CHANNELS 3 Zrotation Yrotation Xrotation
                    JOINT LeftHandRing2
                    {
                      OFFSET 5.854541 -0.486202 -1.373841
                      CHANNELS 3 Zrotation Yrotation Xrotation
                      JOINT LeftHandRing3
                      {
                        OFFSET 4.350578 0.0 3e-06
                        CHANNELS 3 Zrotation Yrotation Xrotation
                        JOINT LeftHandRing4
                        {
                          OFFSET 2.651321 7e-06 2e-06
                          CHANNELS 3 Zrotation Yrotation Xrotation
                          JOINT LeftHandRingEnd
                          {
                            OFFSET 1.936105 0.077687 -7.1e-05
                            CHANNELS 3 Zrotation Yrotation Xrotation
                          }
                        }
                      }
                    }
                  }
                  JOINT LeftHandPinky1
                  {
                    OFFSET 2.8655 -0.310005 -1.600378
                    CHANNELS 3 Zrotation Yrotation Xrotation
                    JOINT LeftHandPinky2
                    {
                      OFFSET 5.087849 -1.331141 -1.77123
                      CHANNELS 3 Zrotation Yrotation Xrotation
                      JOINT LeftHandPinky3
                      {
                        OFFSET 3.070974 4e-06 0.0
                        CHANNELS 3 Zrotation Yrotation Xrotation
                        JOINT LeftHandPinky4
                        {
                          OFFSET 1.549672 0.0 1e-06
                          CHANNELS 3 Zrotation Yrotation Xrotation
                          JOINT LeftHandPinkyEnd
                          {
                            OFFSET 1.944893 -0.157802 0.057219
                            CHANNELS 3 Zrotation Yrotation Xrotation
                          }
                        }
                      }
                    }
                  }
                }
              }
            }
          }
          JOINT RightShoulder
          {
            OFFSET -1.380118 23.180309 5.214158
            CHANNELS 3 Zrotation Yrotation Xrotation
            JOINT RightArm
            {
              OFFSET -15.037196 1.2e-05 -5.545604
              CHANNELS 3 Zrotation Yrotation Xrotation
              JOINT RightForeArm
              {
                OFFSET -28.736639 2e-06 -0.002597
                CHANNELS 3 Zrotation Yrotation Xrotation
                JOINT RightHand
                {
                  OFFSET -27.133619 -0.0 0.002613
                  CHANNELS 3 Zrotation Yrotation Xrotation
                  JOINT RightHandThumb1
                  {
                    OFFSET -2.274032 -1.383988 3.163127
                    CHANNELS 3 Zrotation Yrotation Xrotation
                    JOINT RightHandThumb2
                    {
                      OFFSET -4.011429 -1.827466 1.640914
                      CHANNELS 3 Zrotation Yrotation Xrotation
                      JOINT RightHandThumb3
                      {
                        OFFSET -2.794935 -4e-06 -3e-06
                        CHANNELS 3 Zrotation Yrotation Xrotation
                        JOINT RightHandThumbEnd
                        {
                          OFFSET -3.183852 4e-06 1e-06
                          CHANNELS 3 Zrotation Yrotation Xrotation
                        }
                      }
                    }
                  }
                  JOINT RightHandIndex1
                  {
                    OFFSET -3.253266 -0.520057 2.282866
                    CHANNELS 3 Zrotation Yrotation Xrotation
                    JOINT RightHandIndex2
                    {
                      OFFSET -6.341917 0.012471 0.178266
                      CHANNELS 3 Zrotation Yrotation Xrotation
                      JOINT RightHandIndex3
                      {
                        OFFSET -3.654871 -8e-06 -0.0
                        CHANNELS 3 Zrotation Yrotation Xrotation
                        JOINT RightHandIndex4
                        {
                          OFFSET -2.327586 0.0 1e-06
                          CHANNELS 3 Zrotation Yrotation Xrotation
                          JOINT RightHandIndexEnd
                          {
                            OFFSET -2.76179 -0.180656 -0.113078
                            CHANNELS 3 Zrotation Yrotation Xrotation
                          }
                        }
                      }
                    }
                  }
                  JOINT RightHandMiddle1
                  {
                    OFFSET -3.168106 0.246593 1.00103
                    CHANNELS 3 Zrotation Yrotation Xrotation
                    JOINT RightHandMiddle2
                    {
                      OFFSET -6.180828 -0.258836 -1.000895
                      CHANNELS 3 Zrotation Yrotation Xrotation
                      JOINT RightHandMiddle3
                      {
                        OFFSET -4.348901 0.0 -0.0
                        CHANNELS 3 Zrotation Yrotation Xrotation
                        JOINT RightHandMiddle4
                        {
                          OFFSET -3.00024 -4e-06 -2e-06
                          CHANNELS 3 Zrotation Yrotation Xrotation
                          JOINT RightHandMiddleEnd
                          {
                            OFFSET -2.30252 -0.29437 -0.031706
                            CHANNELS 3 Zrotation Yrotation Xrotation
                          }
                        }
                      }
                    }
                  }
                  JOINT RightHandRing1
                  {
                    OFFSET -2.88569 -0.067952 -0.308858
                    CHANNELS 3 Zrotation Yrotation Xrotation
                    JOINT RightHandRing2
                    {
                      OFFSET -5.854198 -0.48613 -1.373731
                      CHANNELS 3 Zrotation Yrotation Xrotation
                      JOINT RightHandRing3
                      {
                        OFFSET -4.33881 -4e-06 -0.0
                        CHANNELS 3 Zrotation Yrotation Xrotation
                        JOINT RightHandRing4
                        {
                          OFFSET -2.654903 -4e-06 4e-06
                          CHANNELS 3 Zrotation Yrotation Xrotation
                          JOINT RightHandRingEnd
                          {
                            OFFSET -1.933568 0.077527 -5.2e-05
                            CHANNELS 3 Zrotation Yrotation Xrotation
                          }
                        }
                      }
                    }
                  }
                  JOINT RightHandPinky1
                  {
                    OFFSET -2.866425 -0.342796 -1.584145
                    CHANNELS 3 Zrotation Yrotation Xrotation
                    JOINT RightHandPinky2
                    {
                      OFFSET -5.091371 -1.332055 -1.772385
                      CHANNELS 3 Zrotation Yrotation Xrotation
                      JOINT RightHandPinky3
                      {
                        OFFSET -3.062664 -4e-06 1e-06
                        CHANNELS 3 Zrotation Yrotation Xrotation
                        JOINT RightHandPinky4
                        {
                          OFFSET -1.546529 4e-06 -2e-06
                          CHANNELS 3 Zrotation Yrotation Xrotation
                          JOINT RightHandPinkyEnd
                          {
                            OFFSET -1.945119 -0.157718 0.057211
                            CHANNELS 3 Zrotation Yrotation Xrotation
                          }
                        }
                      }
                    }
                  }
                }
              }
            }
          }
        }
      }
    }
    JOINT LeftLeg
    {
      OFFSET 10.043214 -8.434526 2.595655
      CHANNELS 3 Zrotation Yrotation Xrotation
      JOINT LeftShin
      {
        OFFSET -1e-06 -43.221752 -0.802913
        CHANNELS 3 Zrotation Yrotation Xrotation
        JOINT LeftFoot
        {
          OFFSET 1e-06 -42.155094 -3.481523
          CHANNELS 3 Zrotation Yrotation Xrotation
          JOINT LeftToeBase
          {
            OFFSET 0.0 -5.059472 13.231529
            CHANNELS 3 Zrotation Yrotation Xrotation
            JOINT LeftToeEnd
            {
              OFFSET -0.009607 -1.647619 6.513017
              CHANNELS 3 Zrotation Yrotation Xrotation
            }
          }
        }
      }
    }
    JOINT RightLeg
    {
      OFFSET -10.047278 -8.29526 2.620317
      CHANNELS 3 Zrotation Yrotation Xrotation
      JOINT RightShin
      {
        OFFSET 1e-06 -43.362206 -0.805556
        CHANNELS 3 Zrotation Yrotation Xrotation
        JOINT RightFoot
        {
          OFFSET 2e-06 -42.117393 -3.478398
          CHANNELS 3 Zrotation Yrotation Xrotation
          JOINT RightToeBase
          {
            OFFSET -0.0 -5.079609 13.284196
            CHANNELS 3 Zrotation Yrotation Xrotation
            JOINT RightToeEnd
            {
              OFFSET 0.009532 -1.634378 6.460591
              CHANNELS 3 Zrotation Yrotation Xrotation
            }
          }
        }
      }
    }
  }
}
MOTION
Frames: 4
Frame Time: 0.03333333333333333
-53.309948 0.0 523.691528 0.0 -0.0 0.0 0.0 97.030624 0.0 -4.744473 3.444943 -4.400211 0.44246 0.026695 -0.234841 -0.078095 -1.845577 -4.6957 3.419687 -3.062217 10.618246 2.76924 -0.502922 5.788255 -0.166711 -0.928464 -3.730067 -3.593853 -0.060077 -9.453083 0.000137 -1.9e-05 0.000352 0.011129 -0.083393 0.065918 0.794608 -3.829196 -10.644285 -0.788553 3.670869 -10.646278 -12.001641 -7.088739 14.815893 -64.864937 -4.497755 5.773312 0.323242 -28.573975 -0.15096 8.690499 -0.627454 -5.875009 -5.854959 9.926666 0.550431 -10.955692 -0.392451 7.102309 0.004466 8.754253 0.001108 -15.386291 18.258087 5.994285 -1.850279 2.510519 -2.500489 -10.147419 4.649061 4.628087 -20.942516 0.003182 -0.010593 -21.194881 2.448823 -3.568759 0.000533 2.1e-05 -0.004278 -1.355156 2.206783 -0.725085 -21.312977 0.597471 2.984531 -13.807117 -0.010611 0.014179 -23.825228 -0.273106 -0.826533 -58.583382 1.6635 -1.636879 -0.283174 1.642165 0.85352 -14.208246 0.111709 1.287585 -34.146553 -0.292322 0.960663 -19.992229 0.967214 1.20501 0.009327 -0.001604 0.007691 -3.419374 0.736345 0.522328 -15.929999 -3.135529 2.983546 -6.32834 -0.005677 -0.00352 -18.084616 3.652879 -4.89234 -0.001728 0.005354 0.00414 15.268784 4.162283 14.520041 62.152538 4.292615 7.921952 -0.041682 30.233259 -0.129603 -11.363502 1.598322 -20.191778 2.241224 -5.284831 -3.219191 14.314392 -0.803351 6.927573 0.002587 -12.678165 -0.002064 16.181238 -18.044283 3.585227 1.661906 -1.946207 -2.878644 4.712466 -4.175002 5.002951 11.004165 0.000705 0.00511 12.074921 -3.72385 -2.850167 -0.006783 -0.000282 6.2e-05 1.277412 -1.911684 -1.487641 14.776011 0.560159 3.867353 14.205331 -1.346135 -6.645266 19.545376 0.142794 -0.639675 53.051632 -1.953997 -4.962166 0.338111 -1.489321 -0.020362 20.188185 3.668819 2.320131 18.762449 -0.011149 0.006314 10.743752 -0.480499 1.402583 -0.009283 -0.00794 -0.000439 3.242573 0.334246 -0.56124 21.471966 11.807791 2.263628 8.144401 0.004708 0.004075 18.35778 -3.830037 -4.93799 -0.009011 -0.007514 0.000211 13.490495 10.237005 -3.974045 -0.188404 -0.774345 54.662598 -2.619857 14.300979 9.890902 1.80538 -1.753541 -7.363037 0.004688 -0.002247 0.019407 8.85412 -14.677549 -16.851393 -0.196529 -0.048783 22.13479 13.100906 -6.794137 -3.539613 -1.336148 1.568809 -7.341139 0.002101 -0.004733 0.007133 
-53.549797 0.0 527.32251 0.0 -0.0 0.0 0.0 97.794487 0.0 -4.128968 2.553358 -4.81342 0.278609 0.1834 0.058656 -0.137386 -1.330669 -4.686454 3.306004 -2.835381 10.763033 2.238312 -0.23649 5.997581 -0.146489 -0.945314 -3.735871 -3.484033 -0.135931 -9.306668 -0.000843 -0.000415 0.000871 0.007604 -0.057173 0.045928 0.781794 -3.788748 -10.675281 -0.781758 3.684829 -10.659099 -12.20562 -6.841644 14.904641 -65.947456 -3.622566 6.339287 0.443873 -27.883421 -0.272423 9.14079 -0.88772 -5.293468 -5.90566 9.835246 0.817998 -10.946776 -0.385341 7.169501 -0.000268 8.76138 -0.011028 -15.500824 18.242079 5.946492 -1.836739 2.495513 -2.518411 -10.167999 4.679183 4.618656 -20.990206 -0.002845 0.011021 -21.215233 2.446337 -3.593946 -0.008067 -0.002721 0.006598 -1.361384 2.229396 -0.751939 -21.330381 0.593657 3.007571 -13.823914 -0.006234 0.008774 -23.861042 -0.254523 -0.825482 -58.65173 1.727096 -1.678417 -0.297273 1.664029 0.819992 -14.213194 0.105277 1.304196 -34.215206 -0.269203 0.981505 -20.078836 0.962802 1.224249 -0.006848 -0.00213 -0.004803 -3.448232 0.783185 0.48921 -15.927289 -3.168344 3.005091 -6.345594 0.005648 -0.000536 -18.118324 3.639082 -4.886946 -0.001262 -0.005172 -0.010588 14.280483 5.059745 14.631973 63.057228 5.433748 8.049579 -0.305786 30.086857 -0.237224 -11.778028 2.100146 -19.917576 2.279194 -5.146357 -2.984521 14.295866 -0.852949 7.015073 -0.000243 -12.701121 0.001294 16.224909 -18.134657 3.703321 1.667837 -1.947643 -2.888735 4.732873 -4.184018 4.985131 11.03592 0.010745 0.005842 12.119411 -3.748785 -2.874111 -0.004743 0.003464 -0.000267 1.301017 -1.943251 -1.509365 14.817515 0.590005 3.87267 14.251223 -1.341384 -6.663995 19.690805 0.134756 -0.646793 53.661739 -2.05686 -4.878942 0.362071 -1.521238 -0.048008 20.245968 3.700397 2.327127 18.835638 -0.003013 0.025895 10.758709 -0.491035 1.408603 0.012437 -0.000744 -0.003978 3.297934 0.290187 -0.605767 21.503939 11.87016 2.284172 8.185308 -0.011015 0.003231 18.41573 -3.784005 -4.922367 -0.000255 -0.007312 -0.00392 11.561407 11.126125 -8.240774 -0.086943 -0.24844 51.968109 -1.605079 15.617119 7.980888 1.737735 -1.733161 -7.501514 -0.003605 -0.000689 0.001379 7.793223 -14.900237 -12.702735 -0.126862 0.047744 20.007586 14.988931 -6.200273 -4.854552 -1.31115 1.61359 -7.572178 -0.005135 -0.000931 0.001987 
-53.621845 0.0 531.241577 0.0 -0.0 0.0 0.0 98.444366 0.0 -3.181032 1.371839 -5.053831 -0.055277 0.260896 0.241301 -0.206426 -0.866576 -4.640078 3.008403 -2.523275 10.812002 1.741241 0.062571 6.127608 -0.01152 -0.773569 -3.703413 -3.448616 -0.04198 -9.271561 -2.8e-05 8.6e-05 0.003397 0.00713 -0.045185 0.051676 0.751982 -3.771429 -10.655728 -0.751406 3.693344 -10.639594 -12.647577 -6.180968 15.026495 -66.449821 -2.694767 6.426991 0.518078 -27.284214 -0.352129 9.603042 -1.426471 -5.288603 -5.873449 9.853058 0.719868 -10.925924 -0.366879 7.154073 0.004748 8.773349 -0.005801 -15.594207 18.221655 5.796834 -1.836243 2.489479 -2.500688 -10.169025 4.666259 4.60738 -20.990171 -0.006888 -7.3e-05 -21.223915 2.441963 -3.583874 -0.001644 -0.005092 -0.0055 -1.346326 2.224781 -0.73654 -21.358202 0.582651 3.000092 -13.834173 -0.00935 0.008033 -23.882011 -0.278356 -0.815659 -58.488522 1.740355 -1.649097 -0.279949 1.654118 0.845336 -14.235367 0.113139 1.280961 -34.243011 -0.326661 0.976516 -20.024328 0.960478 1.215951 0.000714 0.000384 0.001635 -3.436907 0.763819 0.499551 -15.942729 -3.152787 2.994382 -6.337124 0.003191 0.001152 -18.129713 3.633127 -4.907737 -0.000783 0.001857 0.00448 13.701302 5.671581 14.026233 63.167904 6.237987 8.30428 -0.448903 30.037886 -0.239649 -12.17846 2.405145 -18.959635 2.228033 -5.284125 -3.224339 14.285235 -0.807733 6.929363 -0.002752 -12.677601 0.002163 16.119085 -18.155754 3.688318 1.667946 -1.957476 -2.875193 4.724882 -4.165219 4.996249 11.010247 0.008295 -0.000672 12.100357 -3.734736 -2.866887 -0.010658 0.003179 0.001708 1.289501 -1.921117 -1.490395 14.798462 0.562759 3.863604 14.242487 -1.339381 -6.65682 19.622252 0.145792 -0.637738 53.504131 -2.017659 -4.883936 0.350802 -1.492348 -0.027156 20.20924 3.644815 2.309518 18.759897 0.006636 0.005187 10.722786 -0.483927 1.394681 0.002516 0.000334 -0.00955 3.263671 0.335447 -0.575483 21.485388 11.773439 2.254411 8.154543 0.004294 0.003479 18.376638 -3.779767 -4.935203 -0.00414 -0.001336 -0.00818 9.204009 11.38853 -11.480865 -0.020643 0.022395 47.016754 -1.559491 16.161932 6.174065 1.727698 -1.753134 -7.677691 0.000176 0.003418 -0.001179 6.183547 -14.712197 -8.603868 -0.045214 0.12717 18.008059 16.270716 -5.349594 -6.332632 -1.321218 1.587657 -7.73693 -0.009546 0.009619 0.000611 
-53.694145 0.0 535.01178 0.0 -0.0 0.0 0.0 98.891678 0.0 -2.138867 0.23671 -5.059416 -0.429528 0.197636 0.32781 -0.282029 -0.429646 -4.569916 2.678865 -2.203948 10.7582 1.165849 0.316479 6.140304 0.1831 -0.566872 -3.679667 -3.390877 0.112849 -9.320394 6.3e-05 9.5e-05 0.003419 0.004835 -0.06322 0.052048 0.720107 -3.784213 -10.61537 -0.726072 3.667867 -10.617351 -13.083023 -5.956539 15.058983 -66.873047 -1.746003 6.45029 0.562116 -26.780123 -0.351596 10.080133 -2.075064 -5.533175 -5.869437 9.841629 0.736318 -10.928557 -0.354429 7.16719 0.002812 8.772696 0.000464 -15.610698 18.230078 5.733912 -1.846279 2.49532 -2.511972 -10.167713 4.682974 4.625365 -20.979801 0.00182 -0.00812 -21.225451 2.458367 -3.602793 0.007775 0.00124 -0.001497 -1.370317 2.249816 -0.742751 -21.342461 0.572841 3.004323 -13.830792 0.000115 0.002841 -23.933611 -0.251904 -0.852893 -58.268951 1.703048 -1.705768 -0.295748 1.685742 0.831497 -14.216707 0.089947 1.303972 -34.17955 -0.292234 0.971809 -20.002357 0.966106 1.200806 -0.009942 -0.005006 0.007361 -3.457597 0.797631 0.48889 -15.931642 -3.175803 3.008594 -6.341372 -0.003991 -0.006281 -18.140318 3.649342 -4.899018 0.014087 0.009236 -0.011507 13.225737 6.26565 14.029694 63.213024 7.079986 8.895158 -0.703221 30.003119 -0.319776 -12.529559 2.493161 -17.859915 2.21565 -5.25011 -3.159885 14.264258 -0.831707 6.965528 -0.001618 -12.703754 -0.001237 16.066326 -18.201443 3.650259 1.659652 -1.955852 -2.873222 4.729264 -4.176912 4.996403 11.018128 0.010548 -0.000916 12.099735 -3.737314 -2.863127 0.00143 -0.002741 0.001036 1.276356 -1.921339 -1.484001 14.804648 0.563085 3.854944 14.242318 -1.346424 -6.662281 19.614063 0.14912 -0.646524 53.437901 -1.88453 -4.997277 0.342219 -1.513891 -0.020805 20.219149 3.707366 2.315351 18.784361 -0.007853 -0.01099 10.755987 -0.470546 1.386872 -0.002024 -0.005135 -0.002164 3.273596 0.309827 -0.573212 21.493336 11.842526 2.266608 8.173091 0.00345 -0.000109 18.427668 -3.812273 -4.958358 -0.006103 0.011026 -0.001075 6.937535 11.372367 -14.121237 -0.003153 0.122872 40.535919 -2.199031 16.305483 4.529752 1.764006 -1.863414 -7.946758 -0.002186 -0.00681 0.008598 4.580956 -14.3555 -5.080575 0.019956 0.196602 16.288666 16.575878 -4.448127 -7.57403 -1.325149 1.510773 -7.717247 0.004582 -0.000361 0.006184 
